<svg version="1.1" id="Layer_1" xmlns="http://www.w3.org/2000/svg" xmlns:xlink="http://www.w3.org/1999/xlink" x="0px" y="0px"
	 width="100%" viewBox="0 0 500 500" enable-background="new 0 0 500 500" xml:space="preserve">
<path fill="#FFFFFF" opacity="1.000000" stroke="none" 
	d="
M232.000000,501.000000 
	C154.666687,501.000000 77.833366,501.000000 1.000041,501.000000 
	C1.000027,334.333405 1.000027,167.666779 1.000014,1.000131 
	C167.666565,1.000087 334.333130,1.000087 500.999756,1.000044 
	C500.999847,167.666519 500.999847,334.333038 500.999939,500.999786 
	C411.500000,501.000000 322.000000,501.000000 232.000000,501.000000 
M254.497025,350.003052 
	C257.496796,349.994934 260.497314,350.027710 263.496185,349.972198 
	C286.298248,349.549957 298.807800,337.381958 299.100037,314.628845 
	C299.403931,290.967865 299.130005,267.299866 299.263336,243.635834 
	C299.288208,239.225433 297.466217,237.837051 293.256775,237.888397 
	C280.093079,238.048965 266.925201,238.035248 253.761017,237.895203 
	C249.728455,237.852310 247.960068,239.332382 248.035919,243.436081 
	C248.174469,250.932953 248.206940,258.437408 248.025101,265.932434 
	C247.918060,270.344147 249.974060,271.908691 254.090118,271.780426 
	C257.837280,271.663605 261.590973,271.755676 265.459442,271.755676 
	C265.459442,283.698181 265.621399,294.862915 265.401398,306.020050 
	C265.259430,313.218781 262.293671,315.988434 255.255341,316.119110 
	C249.091339,316.233521 242.921646,316.235474 236.757874,316.114471 
	C229.908615,315.980011 226.788132,313.191071 226.768600,306.430023 
	C226.655411,267.267181 226.656357,228.103745 226.753540,188.940842 
	C226.770264,182.202484 229.943710,179.236588 236.642761,179.064682 
	C242.471924,178.915085 248.308121,178.975021 254.140411,179.029007 
	C262.265900,179.104218 265.274384,182.015930 265.472748,190.175613 
	C265.614471,196.005188 265.531311,201.840805 265.510315,207.673569 
	C265.499054,210.808258 266.664124,212.847549 270.112915,212.852051 
	C278.278870,212.862701 286.444946,212.882462 294.610657,212.836624 
	C297.611664,212.819778 299.227173,211.295685 299.199463,208.181427 
	C299.103119,197.351089 299.540039,186.486526 298.824310,175.697983 
	C297.697754,158.716461 286.910431,147.230270 269.990936,146.034271 
	C254.739777,144.956238 239.318100,144.702332 224.065750,145.630966 
	C204.911102,146.797180 195.027588,156.381912 192.342010,174.139099 
	C191.822235,177.575912 191.894180,181.119736 191.890884,184.614380 
	C191.860107,217.278580 191.864624,249.942825 191.876511,282.607056 
	C191.880707,294.105865 191.676590,305.612396 192.023010,317.101685 
	C192.574631,335.395538 202.471542,347.008179 220.562057,349.190521 
	C231.415451,350.499786 242.511230,349.799927 254.497025,350.003052 
M159.120331,157.443817 
	C153.690582,150.441727 146.293549,146.506348 137.716949,146.058395 
	C123.931938,145.338409 110.053360,144.803024 96.294685,145.591629 
	C79.049797,146.580048 68.943398,154.762360 65.425652,169.086380 
	C64.288666,173.716125 63.981838,178.638550 63.939964,183.432739 
	C63.776989,202.092697 63.864777,220.754898 63.876163,239.416275 
	C63.881611,248.342438 65.232300,250.156387 73.867531,253.003418 
	C91.703743,258.883972 109.561539,264.701111 127.340012,270.751312 
	C128.920944,271.289337 131.081833,273.312805 131.117966,274.694855 
	C131.400818,285.516113 131.383804,296.352753 131.138306,307.177368 
	C131.004425,313.080170 127.947403,315.843323 121.958061,316.079498 
	C117.798744,316.243561 113.627678,316.201874 109.463707,316.135590 
	C101.822937,316.014008 98.885345,313.183472 98.705994,305.579346 
	C98.564590,299.584290 98.621536,293.583160 98.674225,287.585480 
	C98.706429,283.919128 97.241173,282.032715 93.335716,282.086670 
	C85.172935,282.199432 77.007515,282.127472 68.843185,282.119080 
	C65.654709,282.115784 63.829624,283.414276 63.863510,286.869568 
	C63.968071,297.531464 63.544918,308.220734 64.165970,318.850342 
	C65.160980,335.880432 75.050789,347.296021 91.883720,348.994385 
	C106.068069,350.425507 120.515045,350.329620 134.779572,349.605621 
	C150.988419,348.782928 161.093369,340.314392 164.555954,326.128448 
	C165.686478,321.496887 165.992737,316.576843 166.036850,311.782867 
	C166.202408,293.789490 166.107361,275.793701 166.102966,257.798798 
	C166.100586,248.017822 164.799408,246.233490 155.377869,243.152588 
	C137.843658,237.418854 120.284416,231.759903 102.801636,225.873657 
	C101.180634,225.327866 98.879875,223.404892 98.846756,222.072845 
	C98.565262,210.751663 98.575569,199.415482 98.839531,188.091766 
	C98.971725,182.420746 102.324936,179.362137 108.115685,179.093643 
	C112.604660,178.885529 117.115501,178.913284 121.608055,179.074738 
	C128.001572,179.304489 131.004303,182.278091 131.204041,188.727692 
	C131.399963,195.053391 131.311478,201.389023 131.284058,207.720032 
	C131.268448,211.321609 132.607407,213.327652 136.570923,213.269150 
	C144.733475,213.148666 152.899689,213.174988 161.063110,213.262100 
	C164.646484,213.300339 166.181549,211.778885 166.135406,208.164215 
	C166.005722,198.002075 166.805649,187.755203 165.728546,177.703598 
	C165.009842,170.996582 161.706573,164.566513 159.120331,157.443817 
M353.643127,190.030838 
	C342.563995,241.241455 331.483093,292.451721 320.408386,343.663269 
	C319.254303,348.999817 319.970001,349.953247 325.341583,349.990295 
	C332.672852,350.040863 340.021912,349.696320 347.330627,350.105530 
	C352.648712,350.403290 355.013916,348.421448 355.398285,343.212280 
	C355.629456,340.079254 356.483337,336.991272 357.071655,333.885742 
	C358.637787,325.618561 360.211639,317.352814 361.771057,309.146301 
	C377.192963,309.146301 392.006378,309.146301 406.949615,309.146301 
	C407.277557,310.147461 407.686798,311.057770 407.871216,312.011566 
	C409.923920,322.629333 412.093323,333.228210 413.895874,343.888885 
	C414.635712,348.264404 416.398285,350.279663 421.086456,350.083984 
	C428.405334,349.778503 435.746368,350.021973 443.077911,349.997162 
	C449.214630,349.976410 449.985962,348.973541 448.657227,342.828278 
	C445.774750,329.497070 442.874298,316.169739 439.991760,302.838531 
	C429.023804,252.113876 418.031677,201.394363 407.153229,150.650513 
	C406.359741,146.949280 404.778748,145.107574 400.858795,145.145721 
	C390.029022,145.251114 379.196838,145.253387 368.367188,145.141434 
	C364.729156,145.103821 362.855682,146.668243 362.128174,150.157593 
	C359.412201,163.184250 356.608337,176.192596 353.643127,190.030838 
z"/>
<path fill="#140570" opacity="1.000000" stroke="none" 
	d="
M253.997543,350.003052 
	C242.511230,349.799927 231.415451,350.499786 220.562057,349.190521 
	C202.471542,347.008179 192.574631,335.395538 192.023010,317.101685 
	C191.676590,305.612396 191.880707,294.105865 191.876511,282.607056 
	C191.864624,249.942825 191.860107,217.278580 191.890884,184.614380 
	C191.894180,181.119736 191.822235,177.575912 192.342010,174.139099 
	C195.027588,156.381912 204.911102,146.797180 224.065750,145.630966 
	C239.318100,144.702332 254.739777,144.956238 269.990936,146.034271 
	C286.910431,147.230270 297.697754,158.716461 298.824310,175.697983 
	C299.540039,186.486526 299.103119,197.351089 299.199463,208.181427 
	C299.227173,211.295685 297.611664,212.819778 294.610657,212.836624 
	C286.444946,212.882462 278.278870,212.862701 270.112915,212.852051 
	C266.664124,212.847549 265.499054,210.808258 265.510315,207.673569 
	C265.531311,201.840805 265.614471,196.005188 265.472748,190.175613 
	C265.274384,182.015930 262.265900,179.104218 254.140411,179.029007 
	C248.308121,178.975021 242.471924,178.915085 236.642761,179.064682 
	C229.943710,179.236588 226.770264,182.202484 226.753540,188.940842 
	C226.656357,228.103745 226.655411,267.267181 226.768600,306.430023 
	C226.788132,313.191071 229.908615,315.980011 236.757874,316.114471 
	C242.921646,316.235474 249.091339,316.233521 255.255341,316.119110 
	C262.293671,315.988434 265.259430,313.218781 265.401398,306.020050 
	C265.621399,294.862915 265.459442,283.698181 265.459442,271.755676 
	C261.590973,271.755676 257.837280,271.663605 254.090118,271.780426 
	C249.974060,271.908691 247.918060,270.344147 248.025101,265.932434 
	C248.206940,258.437408 248.174469,250.932953 248.035919,243.436081 
	C247.960068,239.332382 249.728455,237.852310 253.761017,237.895203 
	C266.925201,238.035248 280.093079,238.048965 293.256775,237.888397 
	C297.466217,237.837051 299.288208,239.225433 299.263336,243.635834 
	C299.130005,267.299866 299.403931,290.967865 299.100037,314.628845 
	C298.807800,337.381958 286.298248,349.549957 263.496185,349.972198 
	C260.497314,350.027710 257.496796,349.994934 253.997543,350.003052 
z"/>
<path fill="#140570" opacity="1.000000" stroke="none" 
	d="
M159.340149,157.728149 
	C161.706573,164.566513 165.009842,170.996582 165.728546,177.703598 
	C166.805649,187.755203 166.005722,198.002075 166.135406,208.164215 
	C166.181549,211.778885 164.646484,213.300339 161.063110,213.262100 
	C152.899689,213.174988 144.733475,213.148666 136.570923,213.269150 
	C132.607407,213.327652 131.268448,211.321609 131.284058,207.720032 
	C131.311478,201.389023 131.399963,195.053391 131.204041,188.727692 
	C131.004303,182.278091 128.001572,179.304489 121.608055,179.074738 
	C117.115501,178.913284 112.604660,178.885529 108.115685,179.093643 
	C102.324936,179.362137 98.971725,182.420746 98.839531,188.091766 
	C98.575569,199.415482 98.565262,210.751663 98.846756,222.072845 
	C98.879875,223.404892 101.180634,225.327866 102.801636,225.873657 
	C120.284416,231.759903 137.843658,237.418854 155.377869,243.152588 
	C164.799408,246.233490 166.100586,248.017822 166.102966,257.798798 
	C166.107361,275.793701 166.202408,293.789490 166.036850,311.782867 
	C165.992737,316.576843 165.686478,321.496887 164.555954,326.128448 
	C161.093369,340.314392 150.988419,348.782928 134.779572,349.605621 
	C120.515045,350.329620 106.068069,350.425507 91.883720,348.994385 
	C75.050789,347.296021 65.160980,335.880432 64.165970,318.850342 
	C63.544918,308.220734 63.968071,297.531464 63.863510,286.869568 
	C63.829624,283.414276 65.654709,282.115784 68.843185,282.119080 
	C77.007515,282.127472 85.172935,282.199432 93.335716,282.086670 
	C97.241173,282.032715 98.706429,283.919128 98.674225,287.585480 
	C98.621536,293.583160 98.564590,299.584290 98.705994,305.579346 
	C98.885345,313.183472 101.822937,316.014008 109.463707,316.135590 
	C113.627678,316.201874 117.798744,316.243561 121.958061,316.079498 
	C127.947403,315.843323 131.004425,313.080170 131.138306,307.177368 
	C131.383804,296.352753 131.400818,285.516113 131.117966,274.694855 
	C131.081833,273.312805 128.920944,271.289337 127.340012,270.751312 
	C109.561539,264.701111 91.703743,258.883972 73.867531,253.003418 
	C65.232300,250.156387 63.881611,248.342438 63.876163,239.416275 
	C63.864777,220.754898 63.776989,202.092697 63.939964,183.432739 
	C63.981838,178.638550 64.288666,173.716125 65.425652,169.086380 
	C68.943398,154.762360 79.049797,146.580048 96.294685,145.591629 
	C110.053360,144.803024 123.931938,145.338409 137.716949,146.058395 
	C146.293549,146.506348 153.690582,150.441727 159.340149,157.728149 
z"/>
<path fill="#140570" opacity="1.000000" stroke="none" 
	d="
M353.740295,189.619324 
	C356.608337,176.192596 359.412201,163.184250 362.128174,150.157593 
	C362.855682,146.668243 364.729156,145.103821 368.367188,145.141434 
	C379.196838,145.253387 390.029022,145.251114 400.858795,145.145721 
	C404.778748,145.107574 406.359741,146.949280 407.153229,150.650513 
	C418.031677,201.394363 429.023804,252.113876 439.991760,302.838531 
	C442.874298,316.169739 445.774750,329.497070 448.657227,342.828278 
	C449.985962,348.973541 449.214630,349.976410 443.077911,349.997162 
	C435.746368,350.021973 428.405334,349.778503 421.086456,350.083984 
	C416.398285,350.279663 414.635712,348.264404 413.895874,343.888885 
	C412.093323,333.228210 409.923920,322.629333 407.871216,312.011566 
	C407.686798,311.057770 407.277557,310.147461 406.949615,309.146301 
	C392.006378,309.146301 377.192963,309.146301 361.771057,309.146301 
	C360.211639,317.352814 358.637787,325.618561 357.071655,333.885742 
	C356.483337,336.991272 355.629456,340.079254 355.398285,343.212280 
	C355.013916,348.421448 352.648712,350.403290 347.330627,350.105530 
	C340.021912,349.696320 332.672852,350.040863 325.341583,349.990295 
	C319.970001,349.953247 319.254303,348.999817 320.408386,343.663269 
	C331.483093,292.451721 342.563995,241.241455 353.740295,189.619324 
M377.561523,279.304901 
	C385.181793,279.304901 392.802032,279.304901 400.873413,279.304901 
	C395.448395,249.741348 390.129181,220.754227 384.809937,191.767090 
	C384.590302,191.769043 384.370667,191.771011 384.151031,191.772964 
	C378.835358,220.779602 373.519653,249.786255 368.110138,279.304962 
	C371.316742,279.304962 373.950592,279.304962 377.561523,279.304901 
z"/>
<path fill="#FBFBFD" opacity="1.000000" stroke="none" 
	d="
M377.072998,279.304932 
	C373.950592,279.304962 371.316742,279.304962 368.110138,279.304962 
	C373.519653,249.786255 378.835358,220.779602 384.151031,191.772964 
	C384.370667,191.771011 384.590302,191.769043 384.809937,191.767090 
	C390.129181,220.754227 395.448395,249.741348 400.873413,279.304901 
	C392.802032,279.304901 385.181793,279.304901 377.072998,279.304932 
z"/>
</svg>