<svg id="visual" viewBox="0 0 900 600" width="900" height="600" xmlns="http://www.w3.org/2000/svg" xmlns:xlink="http://www.w3.org/1999/xlink" version="1.1"><rect x="0" y="0" width="900" height="600" fill="#001220"></rect><defs><linearGradient id="grad1_0" x1="33.3%" y1="0%" x2="100%" y2="100%"><stop offset="20%" stop-color="#001220" stop-opacity="1"></stop><stop offset="80%" stop-color="#001220" stop-opacity="1"></stop></linearGradient></defs><defs><linearGradient id="grad2_0" x1="0%" y1="0%" x2="66.7%" y2="100%"><stop offset="20%" stop-color="#001220" stop-opacity="1"></stop><stop offset="80%" stop-color="#001220" stop-opacity="1"></stop></linearGradient></defs><g transform="translate(900, 0)"><path d="M0 486.7C-64.1 480.1 -128.2 473.4 -186.3 449.7C-244.4 426 -296.5 385.3 -338 338C-379.5 290.7 -410.3 236.9 -433.3 179.5C-456.3 122.1 -471.5 61 -486.7 0L0 0Z" fill="#FFFFFF"></path></g><g transform="translate(0, 600)"><path d="M0 -486.7C54.6 -461.8 109.3 -436.9 173.4 -418.5C237.5 -400.2 311 -388.4 344.2 -344.2C377.3 -299.9 370.1 -223.1 387.1 -160.3C404.1 -97.6 445.4 -48.8 486.7 0L0 0Z" fill="#FFFFFF"></path></g></svg>